<svg id="Capa_1" enable-background="new 0 0 512 512" height="512" viewBox="0 0 512 512" width="512" xmlns="http://www.w3.org/2000/svg"><g><g><g><path d="m256 148.24v118.694l101.181-65.432v-126.072" fill="#ff9eb1"/></g><path d="m154.819 75.43v126.072l101.181 65.432v-118.694" fill="#ffdfe5"/><path d="m256 140.861-101.181-65.431 101.181-65.431 101.181 65.431z" fill="#ff9eb1"/><g><g><path d="m315.581 325.551v116.12l93.194 60.266v-109.324" fill="#beece1"/><path d="m408.775 392.613v109.324l93.194-60.266v-116.12" fill="#9de3d1"/></g><path d="m408.775 385.817-93.193-60.266 93.193-60.266 93.194 60.266z" fill="#9de3d1"/></g><g><g><path d="m10.031 325.551v116.12l93.194 60.266v-109.324" fill="#ffe6b4"/><path d="m103.225 392.613v109.324l93.194-60.266v-116.12" fill="#ffda8f"/></g><path d="m103.225 385.817-93.194-60.266 93.194-60.266 93.194 60.266z" fill="#ffda8f"/></g></g><g><path d="m357.177 134.543c-4.058 0-7.8-2.563-9.288-6.332-1.573-3.983-.379-8.686 2.946-11.403 3.283-2.682 8.018-2.986 11.619-.758 3.576 2.213 5.403 6.573 4.478 10.675-1.015 4.5-5.132 7.818-9.755 7.818z"/><path d="m511.965 325.322v-.002c-.021-3.282-1.701-6.331-4.465-8.102l-.164-.105-93.131-60.225c-3.306-2.136-7.556-2.136-10.86 0l-27.15 17.557-47.61-42.543 34.027-22.005c2.848-1.842 4.569-5.003 4.569-8.396v-31.22c0-5.325-4.018-9.975-9.332-10.32-5.823-.378-10.665 4.235-10.665 9.977v26.121l-81.184 52.5v-100.32c0-.624-.058-1.235-.167-1.828l96.78-62.585c2.848-1.842 4.569-5.004 4.569-8.396s-1.72-6.554-4.569-8.396l-101.183-65.432c-3.306-2.136-7.554-2.136-10.86 0l-101.119 65.39-.003.002c-2.853 1.828-4.592 4.97-4.628 8.358l-.001.077v126.072c0 3.393 1.721 6.554 4.569 8.396l35.524 22.972-46.981 41.98c-.21.188-.409.382-.599.582l-28.677-18.545c-3.306-2.136-7.556-2.136-10.86 0l-93.131 60.227-.22.129c-2.733 1.605-4.411 4.536-4.411 7.706v.602 116.12c0 3.392 1.721 6.554 4.569 8.396l93.194 60.266c.035.023.08.052.134.087 3.218 2.106 7.373 2.106 10.591 0 .054-.035.1-.065.134-.088l93.193-60.266c2.848-1.843 4.569-5.004 4.569-8.396v-33.389h99.165v33.389c0 3.392 1.72 6.554 4.569 8.396l93.193 60.266c.035.023.08.051.135.083 3.252 1.949 7.339 1.949 10.591 0 .054-.032.099-.06.134-.083l93.194-60.266c2.848-1.843 4.569-5.004 4.569-8.396.001.002-.001-116.271-.002-116.347zm-103.19-48.129 74.781 48.358-74.781 48.358-74.78-48.358zm-152.775-255.287 82.769 53.523-82.769 53.524-82.769-53.523zm-91.183 71.898 81.351 52.608c-.109.593-.167 1.204-.167 1.828v100.32l-81.184-52.5zm-61.592 183.389 74.781 48.358-74.781 48.358-74.781-48.358zm-83.195 66.731 73.281 47.389c-.055.426-.084.859-.084 1.3v90.951l-73.197-47.335zm93.194 139.639v-90.95c0-.441-.029-.874-.084-1.3l73.28-47.388v92.305zm93.193-95.279v-62.733c0-.014-.005-.22-.014-.548-.086-3.245-1.828-6.222-4.615-7.887l-.003-.002-47.072-30.44 47.61-42.543 48.246 31.199c.055.035.136.085.238.146 3.272 1.961 7.389 1.927 10.6-.132.008-.005.015-.01.022-.014l49.742-32.167 47.61 42.543-48.568 31.408s-.001.001-.003.002c-2.837 1.632-4.632 4.621-4.629 7.893 0 .324.001.528.001.542v62.733zm119.163-44.359 73.28 47.388c-.055.426-.084.859-.084 1.3v90.95l-73.196-47.334zm93.193 139.639v-90.951c0-.44-.029-.874-.084-1.3l73.281-47.389v92.305z"/></g></g></svg>