<svg height="467pt" viewBox="0 -1 467.68 467" width="467pt" xmlns="http://www.w3.org/2000/svg"><path d="m16 209.78125h408c8.835938 0 16 7.164062 16 16v224c0 8.835938-7.164062 16-16 16h-408c-8.835938 0-16-7.164062-16-16v-224c0-8.835938 7.164062-16 16-16zm0 0" fill="#d9ccbc"/><path d="m445.039062 79.539062c-15.640624 15.621094-40.980468 15.601563-56.597656-.039062-15.621094-15.640625-15.601562-40.980469.039063-56.601562l-22.640625-22.558594-101.839844 101.839844-1.921875 107.601562h97.921875l107.679688-107.679688zm0 0" fill="#ff9811"/><path d="m388.480469 147.378906-62.402344 62.402344h-62.078125v-73.679688l56.558594-56.5625zm0 0" fill="#cc7400"/><path d="m56 1.78125h208v208h-208zm0 0" fill="#00665a"/><path d="m232 65.78125v144h-144v-144c17.671875 0 32-14.328125 32-32h80c0 17.671875 14.328125 32 32 32zm0 0" fill="#00b6bd"/><path d="m464 305.78125v64c-.027344 8.824219-7.175781 15.972656-16 16h-88c-8.824219-.027344-15.972656-7.175781-16-16v-64c.027344-8.828125 7.175781-15.976562 16-16h88c8.824219.023438 15.972656 7.171875 16 16zm-64 32c0-8.835938-7.164062-16-16-16s-16 7.164062-16 16 7.164062 16 16 16c8.824219-.027344 15.972656-7.175781 16-16zm0 0" fill="#806749"/><path d="m400 337.78125c0 8.835938-7.164062 16-16 16s-16-7.164062-16-16 7.164062-16 16-16 16 7.164062 16 16zm0 0" fill="#acabb1"/><g fill="#ffda44"><path d="m326.226562 62.542969 11.3125-11.316407 11.3125 11.316407-11.3125 11.3125zm0 0"/><path d="m343.195312 79.503906 11.3125-11.3125 11.316407 11.3125-11.316407 11.3125zm0 0"/><path d="m360.167969 96.472656 11.3125-11.3125 11.316406 11.3125-11.316406 11.3125zm0 0"/><path d="m377.136719 113.441406 11.316406-11.3125 11.3125 11.3125-11.3125 11.316406zm0 0"/><path d="m394.109375 130.417969 11.3125-11.316407 11.3125 11.316407-11.3125 11.3125zm0 0"/><path d="m184 129.78125h-8c-13.253906 0-24 10.742188-24 24h-24c0-4.417969 3.582031-8 8-8v-16c-13.253906 0-24 10.742188-24 24h-8v16h8c0 13.253906 10.746094 24 24 24h8c13.253906 0 24-10.746094 24-24h24c0 4.417969-3.582031 8-8 8v16c13.253906 0 24-10.746094 24-24h8v-16h-8c0-13.257812-10.746094-24-24-24zm-40 48h-8c-4.417969 0-8-3.582031-8-8h24c0 4.417969-3.582031 8-8 8zm24-24c0-4.417969 3.582031-8 8-8h8c4.417969 0 8 3.582031 8 8zm0 0"/></g><path d="m32 233.78125h376v16h-376zm0 0" fill="#806749"/><path d="m48 401.78125h-16v32c0 4.417969 3.582031 8 8 8h32v-16h-24zm0 0" fill="#806749"/></svg>